<?xml version="1.0" encoding="UTF-8"?>
<svg width="496px" height="254px" viewBox="0 0 496 254" version="1.1" xmlns="http://www.w3.org/2000/svg" xmlns:xlink="http://www.w3.org/1999/xlink">
    <!-- Generator: Sketch 52.5 (67469) - http://www.bohemiancoding.com/sketch -->
    <title>logo brainstorm</title>
    <desc>Created with Sketch.</desc>
    <g id="Page-1" stroke="none" stroke-width="1" fill="none" fill-rule="evenodd">
        <g id="Text" transform="translate(7.000000, -5.000000)">
            <g id="Websites" transform="translate(4.000000, 89.000000)" fill="#36B4E6">
                <path d="M47.671875,134.796875 L67.359375,45.359375 L73.96875,45.359375 L73.96875,82.90625 L58.640625,149.5625 L36.5625,149.5625 L10.265625,45.359375 L29.390625,45.359375 L47.671875,134.796875 Z M124.59375,45.359375 L143.71875,45.359375 L115.734375,149.5625 L93.796875,149.5625 L79.734375,85.578125 L79.734375,45.359375 L86.484375,45.359375 L104.765625,134.796875 L124.59375,45.359375 Z" id="W-Copy"></path>
                <path d="M164.6325,54.0975 L164.6325,65.1475 L179.5175,65.1475 L179.5175,73.2725 L164.6325,73.2725 L164.6325,84.55 L184.0675,84.55 L184.0675,93 L153.5825,93 L153.5825,45.6475 L184.0675,45.6475 L184.0675,54.0975 L164.6325,54.0975 Z M219.6475,84.7125 C221.099174,84.7125 222.285412,84.5283352 223.20625,84.16 C224.127088,83.7916648 224.847498,83.3150029 225.3675,82.73 C225.887503,82.1449971 226.244999,81.4841703 226.44,80.7475 C226.635001,80.0108297 226.7325,79.2633371 226.7325,78.505 C226.7325,77.638329 226.618752,76.8583368 226.39125,76.165 C226.163749,75.4716632 225.773753,74.886669 225.22125,74.41 C224.668748,73.9333309 223.937505,73.5650013 223.0275,73.305 C222.117496,73.0449987 220.969174,72.915 219.5825,72.915 L211.9125,72.915 L211.9125,84.7125 L219.6475,84.7125 Z M211.9125,53.87 L211.9125,65.57 L217.6325,65.57 C218.84584,65.57 219.939996,65.4833342 220.915,65.31 C221.890005,65.1366658 222.718747,64.8333355 223.40125,64.4 C224.083754,63.9666645 224.603749,63.3708371 224.96125,62.6125 C225.318752,61.8541629 225.4975,60.9008391 225.4975,59.7525 C225.4975,58.6258277 225.356668,57.6887537 225.075,56.94125 C224.793332,56.1937463 224.360003,55.5925023 223.775,55.1375 C223.189997,54.6824977 222.447922,54.357501 221.54875,54.1625 C220.649579,53.967499 219.582507,53.87 218.3475,53.87 L211.9125,53.87 Z M218.3475,45.6475 C221.619183,45.6475 224.403322,45.9508303 226.7,46.5575 C228.996679,47.1641697 230.870826,48.0199945 232.3225,49.125 C233.774174,50.2300055 234.830414,51.5733254 235.49125,53.155 C236.152087,54.7366746 236.4825,56.5024902 236.4825,58.4525 C236.4825,59.514172 236.330835,60.5379117 236.0275,61.52375 C235.724166,62.5095883 235.247504,63.4304124 234.5975,64.28625 C233.947497,65.1420876 233.113339,65.9274964 232.095,66.6425 C231.076662,67.3575036 229.852508,67.9749974 228.4225,68.495 C231.542516,69.2533371 233.849993,70.4774915 235.345,72.1675 C236.840008,73.8575084 237.5875,76.0458199 237.5875,78.7325 C237.5875,80.7475101 237.197504,82.621658 236.4175,84.355 C235.637496,86.088342 234.494591,87.5995769 232.98875,88.88875 C231.48291,90.1779231 229.625011,91.185413 227.415,91.91125 C225.204989,92.637087 222.680848,93 219.8425,93 L200.9275,93 L200.9275,45.6475 L218.3475,45.6475 Z M280.707501,55.2675 C280.382499,55.7875026 280.041253,56.1774987 279.683751,56.4375 C279.326249,56.6975013 278.865837,56.8275 278.302501,56.8275 C277.804165,56.8275 277.26792,56.6704182 276.693751,56.35625 C276.119581,56.0420818 275.469588,55.6900019 274.743751,55.3 C274.017914,54.909998 273.189172,54.5579182 272.257501,54.24375 C271.325829,53.9295818 270.264173,53.7725 269.072501,53.7725 C267.014157,53.7725 265.481256,54.2112456 264.473751,55.08875 C263.466246,55.9662544 262.962501,57.1524925 262.962501,58.6475 C262.962501,59.6008381 263.265831,60.3916635 263.872501,61.02 C264.47917,61.6483365 265.275413,62.1899977 266.261251,62.645 C267.247089,63.1000023 268.373744,63.5170814 269.641251,63.89625 C270.908757,64.2754186 272.203327,64.6979143 273.525001,65.16375 C274.846674,65.6295857 276.141244,66.1766635 277.408751,66.805 C278.676257,67.4333365 279.802913,68.2349951 280.788751,69.21 C281.774589,70.1850049 282.570831,71.371243 283.177501,72.76875 C283.78417,74.166257 284.087501,75.8508235 284.087501,77.8225 C284.087501,80.0108443 283.708338,82.0583238 282.950001,83.965 C282.191664,85.8716762 281.092091,87.5345762 279.651251,88.95375 C278.21041,90.3729238 276.433761,91.4887459 274.321251,92.30125 C272.20874,93.1137541 269.809181,93.52 267.122501,93.52 C265.64916,93.52 264.148758,93.3683348 262.621251,93.065 C261.093743,92.7616651 259.615008,92.3337528 258.185001,91.78125 C256.754994,91.2287472 255.411674,90.5733371 254.155001,89.815 C252.898328,89.0566629 251.804172,88.2116713 250.872501,87.28 L254.122501,82.145 C254.382502,81.7766648 254.723749,81.4679179 255.146251,81.21875 C255.568753,80.9695821 256.029165,80.845 256.527501,80.845 C257.177504,80.845 257.832914,81.0508313 258.493751,81.4625 C259.154587,81.8741687 259.90208,82.3291642 260.736251,82.8275 C261.570422,83.3258358 262.529162,83.7808313 263.612501,84.1925 C264.69584,84.6041687 265.97416,84.81 267.447501,84.81 C269.440844,84.81 270.989995,84.3712544 272.095001,83.49375 C273.200006,82.6162456 273.752501,81.2241762 273.752501,79.3175 C273.752501,78.2124945 273.44917,77.3133368 272.842501,76.62 C272.235831,75.9266632 271.439589,75.3525023 270.453751,74.8975 C269.467913,74.4424977 268.346674,74.0416684 267.090001,73.695 C265.833328,73.3483316 264.544174,72.9637521 263.222501,72.54125 C261.900827,72.1187479 260.611674,71.5987531 259.355001,70.98125 C258.098328,70.3637469 256.977089,69.551255 255.991251,68.54375 C255.005413,67.536245 254.20917,66.2795909 253.602501,64.77375 C252.995831,63.2679091 252.692501,61.4100111 252.692501,59.2 C252.692501,57.4233244 253.049997,55.6900084 253.765001,54 C254.480004,52.3099915 255.530827,50.8041733 256.917501,49.4825 C258.304174,48.1608267 260.004991,47.1045873 262.020001,46.31375 C264.035011,45.5229127 266.342488,45.1275 268.942501,45.1275 C270.394175,45.1275 271.807911,45.2412489 273.183751,45.46875 C274.559591,45.6962511 275.864995,46.0320811 277.100001,46.47625 C278.335007,46.9204189 279.488745,47.4512469 280.561251,48.06875 C281.633756,48.6862531 282.592497,49.3849961 283.437501,50.165 L280.707501,55.2675 Z M311.705001,93 L300.655001,93 L300.655001,45.6475 L311.705001,45.6475 L311.705001,93 Z M364.997502,54.3575 L351.672502,54.3575 L351.672502,93 L340.687502,93 L340.687502,54.3575 L327.362502,54.3575 L327.362502,45.6475 L364.997502,45.6475 L364.997502,54.3575 Z M391.705002,54.0975 L391.705002,65.1475 L406.590002,65.1475 L406.590002,73.2725 L391.705002,73.2725 L391.705002,84.55 L411.140002,84.55 L411.140002,93 L380.655002,93 L380.655002,45.6475 L411.140002,45.6475 L411.140002,54.0975 L391.705002,54.0975 Z M454.162502,55.2675 C453.837501,55.7875026 453.496254,56.1774987 453.138752,56.4375 C452.781251,56.6975013 452.320838,56.8275 451.757502,56.8275 C451.259166,56.8275 450.722922,56.6704182 450.148752,56.35625 C449.574583,56.0420818 448.924589,55.6900019 448.198752,55.3 C447.472915,54.909998 446.644174,54.5579182 445.712502,54.24375 C444.780831,53.9295818 443.719175,53.7725 442.527502,53.7725 C440.469159,53.7725 438.936257,54.2112456 437.928752,55.08875 C436.921247,55.9662544 436.417502,57.1524925 436.417502,58.6475 C436.417502,59.6008381 436.720833,60.3916635 437.327502,61.02 C437.934172,61.6483365 438.730414,62.1899977 439.716252,62.645 C440.702091,63.1000023 441.828746,63.5170814 443.096252,63.89625 C444.363759,64.2754186 445.658329,64.6979143 446.980002,65.16375 C448.301676,65.6295857 449.596246,66.1766635 450.863752,66.805 C452.131259,67.4333365 453.257914,68.2349951 454.243752,69.21 C455.229591,70.1850049 456.025833,71.371243 456.632502,72.76875 C457.239172,74.166257 457.542502,75.8508235 457.542502,77.8225 C457.542502,80.0108443 457.163339,82.0583238 456.405002,83.965 C455.646665,85.8716762 454.547093,87.5345762 453.106252,88.95375 C451.665412,90.3729238 449.888763,91.4887459 447.776252,92.30125 C445.663742,93.1137541 443.264182,93.52 440.577502,93.52 C439.104162,93.52 437.60376,93.3683348 436.076252,93.065 C434.548745,92.7616651 433.070009,92.3337528 431.640002,91.78125 C430.209995,91.2287472 428.866675,90.5733371 427.610002,89.815 C426.353329,89.0566629 425.259174,88.2116713 424.327502,87.28 L427.577502,82.145 C427.837504,81.7766648 428.17875,81.4679179 428.601252,81.21875 C429.023754,80.9695821 429.484166,80.845 429.982502,80.845 C430.632506,80.845 431.287916,81.0508313 431.948752,81.4625 C432.609589,81.8741687 433.357081,82.3291642 434.191252,82.8275 C435.025423,83.3258358 435.984164,83.7808313 437.067502,84.1925 C438.150841,84.6041687 439.429162,84.81 440.902502,84.81 C442.895846,84.81 444.444997,84.3712544 445.550002,83.49375 C446.655008,82.6162456 447.207502,81.2241762 447.207502,79.3175 C447.207502,78.2124945 446.904172,77.3133368 446.297502,76.62 C445.690833,75.9266632 444.894591,75.3525023 443.908752,74.8975 C442.922914,74.4424977 441.801675,74.0416684 440.545002,73.695 C439.288329,73.3483316 437.999176,72.9637521 436.677502,72.54125 C435.355829,72.1187479 434.066675,71.5987531 432.810002,70.98125 C431.553329,70.3637469 430.432091,69.551255 429.446252,68.54375 C428.460414,67.536245 427.664172,66.2795909 427.057502,64.77375 C426.450833,63.2679091 426.147502,61.4100111 426.147502,59.2 C426.147502,57.4233244 426.504999,55.6900084 427.220002,54 C427.935006,52.3099915 428.985829,50.8041733 430.372502,49.4825 C431.759176,48.1608267 433.459992,47.1045873 435.475002,46.31375 C437.490012,45.5229127 439.797489,45.1275 442.397502,45.1275 C443.849176,45.1275 445.262912,45.2412489 446.638752,45.46875 C448.014593,45.6962511 449.319996,46.0320811 450.555002,46.47625 C451.790008,46.9204189 452.943747,47.4512469 454.016252,48.06875 C455.088758,48.6862531 456.047498,49.3849961 456.892502,50.165 L454.162502,55.2675 Z" id="EBSITES"></path>
            </g>
            <g id="Meerstad" fill="#FFFFFF">
                <path d="M51.671875,114.796875 L71.359375,25.359375 L77.96875,25.359375 L77.96875,62.90625 L62.640625,129.5625 L40.5625,129.5625 L14.265625,25.359375 L33.390625,25.359375 L51.671875,114.796875 Z M128.59375,25.359375 L147.71875,25.359375 L119.734375,129.5625 L97.796875,129.5625 L83.734375,65.578125 L83.734375,25.359375 L90.484375,25.359375 L108.765625,114.796875 L128.59375,25.359375 Z" id="W" transform="translate(80.992188, 77.460938) rotate(-180.000000) translate(-80.992188, -77.460938) "></path>
                <path d="M168.6325,90.0975 L168.6325,101.1475 L183.5175,101.1475 L183.5175,109.2725 L168.6325,109.2725 L168.6325,120.55 L188.0675,120.55 L188.0675,129 L157.5825,129 L157.5825,81.6475 L188.0675,81.6475 L188.0675,90.0975 L168.6325,90.0975 Z M210.8775,90.0975 L210.8775,101.1475 L225.7625,101.1475 L225.7625,109.2725 L210.8775,109.2725 L210.8775,120.55 L230.3125,120.55 L230.3125,129 L199.8275,129 L199.8275,81.6475 L230.3125,81.6475 L230.3125,90.0975 L210.8775,90.0975 Z M257.4775,103.91 C258.972507,103.91 260.245411,103.720419 261.29625,103.34125 C262.347089,102.962081 263.20833,102.43667 263.88,101.765 C264.55167,101.09333 265.039165,100.307921 265.3425,99.40875 C265.645835,98.5095788 265.7975,97.5400052 265.7975,96.5 C265.7975,94.4199896 265.120423,92.7950058 263.76625,91.625 C262.412077,90.4549941 260.315848,89.87 257.4775,89.87 L253.0575,89.87 L253.0575,103.91 L257.4775,103.91 Z M280.8125,129 L270.8675,129 C269.025824,129 267.704171,128.306674 266.9025,126.92 L259.0375,113.1725 C258.669165,112.587497 258.257502,112.159585 257.8025,111.88875 C257.347498,111.617915 256.697504,111.4825 255.8525,111.4825 L253.0575,111.4825 L253.0575,129 L242.0725,129 L242.0725,81.6475 L257.4775,81.6475 C260.90085,81.6475 263.820405,81.9995798 266.23625,82.70375 C268.652095,83.4079202 270.623742,84.3883271 272.15125,85.645 C273.678758,86.901673 274.789163,88.3858248 275.4825,90.0975 C276.175837,91.8091752 276.5225,93.6724899 276.5225,95.6875 C276.5225,97.225841 276.316669,98.6774932 275.905,100.0425 C275.493331,101.407507 274.886671,102.669578 274.085,103.82875 C273.283329,104.987922 272.292089,106.022495 271.11125,106.9325 C269.930411,107.842505 268.570841,108.589997 267.0325,109.175 C267.747504,109.543335 268.419164,110.003747 269.0475,110.55625 C269.675836,111.108753 270.239164,111.764163 270.7375,112.5225 L280.8125,129 Z M315.9725,91.2675 C315.647498,91.7875026 315.306252,92.1774987 314.94875,92.4375 C314.591248,92.6975013 314.130836,92.8275 313.5675,92.8275 C313.069164,92.8275 312.53292,92.6704182 311.95875,92.35625 C311.38458,92.0420818 310.734587,91.6900019 310.00875,91.3 C309.282913,90.909998 308.454171,90.5579182 307.5225,90.24375 C306.590829,89.9295818 305.529173,89.7725 304.3375,89.7725 C302.279156,89.7725 300.746255,90.2112456 299.73875,91.08875 C298.731245,91.9662544 298.2275,93.1524925 298.2275,94.6475 C298.2275,95.6008381 298.53083,96.3916635 299.1375,97.02 C299.74417,97.6483365 300.540412,98.1899977 301.52625,98.645 C302.512088,99.1000023 303.638744,99.5170814 304.90625,99.89625 C306.173756,100.275419 307.468327,100.697914 308.79,101.16375 C310.111673,101.629586 311.406244,102.176664 312.67375,102.805 C313.941256,103.433336 315.067912,104.234995 316.05375,105.21 C317.039588,106.185005 317.83583,107.371243 318.4425,108.76875 C319.04917,110.166257 319.3525,111.850823 319.3525,113.8225 C319.3525,116.010844 318.973337,118.058324 318.215,119.965 C317.456663,121.871676 316.357091,123.534576 314.91625,124.95375 C313.475409,126.372924 311.698761,127.488746 309.58625,128.30125 C307.473739,129.113754 305.07418,129.52 302.3875,129.52 C300.914159,129.52 299.413758,129.368335 297.88625,129.065 C296.358742,128.761665 294.880007,128.333753 293.45,127.78125 C292.019993,127.228747 290.676673,126.573337 289.42,125.815 C288.163327,125.056663 287.069171,124.211671 286.1375,123.28 L289.3875,118.145 C289.647501,117.776665 289.988748,117.467918 290.41125,117.21875 C290.833752,116.969582 291.294164,116.845 291.7925,116.845 C292.442503,116.845 293.097913,117.050831 293.75875,117.4625 C294.419587,117.874169 295.167079,118.329164 296.00125,118.8275 C296.835421,119.325836 297.794161,119.780831 298.8775,120.1925 C299.960839,120.604169 301.239159,120.81 302.7125,120.81 C304.705843,120.81 306.254994,120.371254 307.36,119.49375 C308.465006,118.616246 309.0175,117.224176 309.0175,115.3175 C309.0175,114.212494 308.71417,113.313337 308.1075,112.62 C307.50083,111.926663 306.704588,111.352502 305.71875,110.8975 C304.732912,110.442498 303.611673,110.041668 302.355,109.695 C301.098327,109.348332 299.809173,108.963752 298.4875,108.54125 C297.165827,108.118748 295.876673,107.598753 294.62,106.98125 C293.363327,106.363747 292.242088,105.551255 291.25625,104.54375 C290.270412,103.536245 289.47417,102.279591 288.8675,100.77375 C288.26083,99.2679091 287.9575,97.4100111 287.9575,95.2 C287.9575,93.4233244 288.314996,91.6900084 289.03,90 C289.745004,88.3099915 290.795826,86.8041733 292.1825,85.4825 C293.569174,84.1608267 295.26999,83.1045873 297.285,82.31375 C299.30001,81.5229127 301.607487,81.1275 304.2075,81.1275 C305.659174,81.1275 307.07291,81.2412489 308.44875,81.46875 C309.82459,81.6962511 311.129994,82.0320811 312.365,82.47625 C313.600006,82.9204189 314.753745,83.4512469 315.82625,84.06875 C316.898755,84.6862531 317.857496,85.3849961 318.7025,86.165 L315.9725,91.2675 Z M364.8475,90.3575 L351.5225,90.3575 L351.5225,129 L340.5375,129 L340.5375,90.3575 L327.2125,90.3575 L327.2125,81.6475 L364.8475,81.6475 L364.8475,90.3575 Z M394.015,110.8975 L389.6275,97.93 C389.302498,97.1066625 388.955835,96.1370889 388.5875,95.02125 C388.219165,93.9054111 387.850835,92.6975065 387.4825,91.3975 C387.157498,92.7191733 386.810835,93.9433277 386.4425,95.07 C386.074165,96.1966723 385.727502,97.1716626 385.4025,97.995 L381.0475,110.8975 L394.015,110.8975 Z M411.4675,129 L402.9525,129 C401.999162,129 401.230003,128.777919 400.645,128.33375 C400.059997,127.889581 399.615835,127.320837 399.3125,126.6275 L396.5175,118.3725 L378.5125,118.3725 L375.7175,126.6275 C375.479165,127.23417 375.051253,127.781248 374.43375,128.26875 C373.816247,128.756252 373.052505,129 372.1425,129 L363.5625,129 L381.8925,81.6475 L393.1375,81.6475 L411.4675,129 Z M463.17,105.3075 C463.17,108.73085 462.579589,111.888736 461.39875,114.78125 C460.217911,117.673764 458.555011,120.176239 456.41,122.28875 C454.264989,124.401261 451.681265,126.047911 448.65875,127.22875 C445.636235,128.409589 442.283352,129 438.6,129 L420.205,129 L420.205,81.6475 L438.6,81.6475 C442.283352,81.6475 445.636235,82.2433274 448.65875,83.435 C451.681265,84.6266726 454.264989,86.2733228 456.41,88.375 C458.555011,90.4766772 460.217911,92.9737355 461.39875,95.86625 C462.579589,98.7587645 463.17,101.905816 463.17,105.3075 Z M451.925,105.3075 C451.925,102.967488 451.62167,100.855009 451.015,98.97 C450.40833,97.0849906 449.536256,95.4870899 448.39875,94.17625 C447.261244,92.8654101 445.869175,91.8579202 444.2225,91.15375 C442.575825,90.4495798 440.701677,90.0975 438.6,90.0975 L431.255,90.0975 L431.255,120.55 L438.6,120.55 C440.701677,120.55 442.575825,120.19792 444.2225,119.49375 C445.869175,118.78958 447.261244,117.78209 448.39875,116.47125 C449.536256,115.16041 450.40833,113.562509 451.015,111.6775 C451.62167,109.792491 451.925,107.669178 451.925,105.3075 Z" id="EERSTAD"></path>
            </g>
        </g>
    </g>
</svg>
